<svg xmlns="http://www.w3.org/2000/svg" viewBox="0 0 64 64">
  <defs>
    <linearGradient id="ng-a" x1="10" y1="8" x2="54" y2="56" gradientUnits="userSpaceOnUse">
      <stop offset="0" stop-color="#f8fbff"/>
      <stop offset=".42" stop-color="#74c7ff"/>
      <stop offset=".78" stop-color="#a994ff"/>
      <stop offset="1" stop-color="#ffffff"/>
    </linearGradient>
    <radialGradient id="ng-b" cx="45" cy="14" r="44" gradientUnits="userSpaceOnUse">
      <stop offset="0" stop-color="#283a67"/>
      <stop offset=".48" stop-color="#070b14"/>
      <stop offset="1" stop-color="#050507"/>
    </radialGradient>
    <filter id="ng-glow" x="-30%" y="-30%" width="160%" height="160%">
      <feGaussianBlur stdDeviation="2.6" result="blur"/>
      <feColorMatrix in="blur" type="matrix" values="0 0 0 0 0.44 0 0 0 0 0.78 0 0 0 0 1 0 0 0 .55 0"/>
      <feMerge>
        <feMergeNode/>
        <feMergeNode in="SourceGraphic"/>
      </feMerge>
    </filter>
  </defs>
  <rect width="64" height="64" rx="18" fill="url(#ng-b)"/>
  <path d="M18 45V19h5.8l16.4 18.2V19H46v26h-5.8L23.8 26.8V45H18Z" fill="url(#ng-a)" filter="url(#ng-glow)"/>
  <path d="M43 45c-7.3 0-12.5-5.4-12.5-13S35.9 19 43.8 19c3.5 0 6.3 1 8.6 2.9l-3.1 4.3c-1.4-1.1-3.1-1.8-5.4-1.8-4.4 0-7.2 3.1-7.2 7.5 0 4.7 2.8 7.8 7.1 7.8 1.3 0 2.5-.2 3.5-.7v-4.1h-5.1v-5h10.7v12.3C50.5 44 47 45 43 45Z" fill="#fff" opacity=".86"/>
  <path d="M15 50c9.7-1.7 18.5-1 34 2" fill="none" stroke="#74c7ff" stroke-opacity=".38" stroke-width="1.6" stroke-linecap="round"/>
  <rect x=".75" y=".75" width="62.5" height="62.5" rx="17.25" fill="none" stroke="#fff" stroke-opacity=".16" stroke-width="1.5"/>
</svg>
